<svg xmlns="http://www.w3.org/2000/svg" width="25" height="24" viewBox="0 0 25 24" fill="none">
  <path d="M23 6.5H20.1L18.9 4.28C18.7 3.94 18.32 3.72 17.94 3.72H7.06C6.68 3.72 6.3 3.94 6.1 4.28L4.9 6.5H2C0.9 6.5 0 7.4 0 8.5V19.5C0 20.6 0.9 21.5 2 21.5H23C24.1 21.5 25 20.6 25 19.5V8.5C25 7.4 24.1 6.5 23 6.5ZM12.5 18C9.46 18 7 15.54 7 12.5C7 9.46 9.46 7 12.5 7C15.54 7 18 9.46 18 12.5C18 15.54 15.54 18 12.5 18ZM22 16H19.34C18.62 16.6 17.56 17 16.5 17C14 17 12 14.98 12 12.5C12 10.02 14 8 16.5 8C17.56 8 18.62 8.4 19.34 9H22V16ZM23 8.5H20.16C19.7 7.61 18.81 7 17.75 7C15.29 7 13.25 9.04 13.25 11.5C13.25 13.96 15.29 16 17.75 16C18.81 16 19.7 15.39 20.16 14.5H23V8.5Z" fill="#7B8D9E"/>
</svg>
