<svg xmlns="http://www.w3.org/2000/svg" width="25" height="25" viewBox="0 0 25 25" fill="none">
  <path d="M12.5 0C19.403 0 25 5.597 25 12.5C25 19.403 19.403 25 12.5 25C5.597 25 0 19.403 0 12.5C0 5.597 5.597 0 12.5 0ZM12.5 23.438C18.39 23.438 23.438 18.39 23.438 12.5C23.438 6.61 18.39 1.562 12.5 1.562C6.61 1.562 1.562 6.61 1.562 12.5C1.562 18.39 6.61 23.438 12.5 23.438ZM12.5 6.25C15.15 6.25 17.287 8.387 17.287 11.037C17.287 13.687 15.15 15.825 12.5 15.825C9.85 15.825 7.713 13.687 7.713 11.037C7.713 8.387 9.85 6.25 12.5 6.25ZM12.5 20.312C9.163 20.312 6.813 18.137 6.813 15.3C6.813 14.137 8.312 12.487 12.5 12.487C16.688 12.487 18.188 14.137 18.188 15.3C18.188 18.137 15.838 20.312 12.5 20.312Z" fill="#7B8D9E"/>
</svg>
