<svg xmlns="http://www.w3.org/2000/svg" width="25" height="25" viewBox="0 0 25 25" fill="none">
  <path d="M18.75 0H6.25C4.455 0 3 1.455 3 3.25V21.75C3 23.545 4.455 25 6.25 25H18.75C20.545 25 22 23.545 22 21.75V3.25C22 1.455 20.545 0 18.75 0ZM6.25 1.25C5.009 1.25 4 2.259 4 3.5V19.719L8.719 15H6.25C5.009 15 4 15.999 4 17.25V21.75C4 22.991 5.009 24 6.25 24H18.75C19.991 24 21 22.991 21 21.75V17.25C21 15.999 19.991 15 18.75 15H16.281L12 19.281L7.719 15H6.25C5.009 15 4 14.001 4 12.75V3.5C4 2.259 5.009 1.25 6.25 1.25ZM12.5 2.5C12.224 2.5 12 2.724 12 3V14.176L13.518 12.659C13.813 12.365 14.288 12.365 14.583 12.659L16.353 14.429L19.853 10.929C20.147 10.634 20.622 10.634 20.916 10.929C21.211 11.224 21.211 11.699 20.916 11.993L17.146 15.764L15.353 14.019C15.058 13.724 14.583 13.724 14.288 14.019L12.5 15.807V3C12.5 2.724 12.276 2.5 12.5 2.5Z" fill="#7B8D9E"/>
</svg>
